<svg xmlns="http://www.w3.org/2000/svg" viewBox="0 0 400 300">
  <rect width="400" height="300" fill="#f1f3f3" />
  <!-- distance from real digits against the step budget -->
  <line x1="60" y1="222" x2="366" y2="222" stroke="#1d4ed8" stroke-width="1.4" stroke-dasharray="6 4" opacity="0.8" />
  <text x="366" y="237" text-anchor="end" font-family="monospace" font-size="11" fill="#1d4ed8">real against real</text>
  <polyline points="60,78 106,105 152,143 198,164 244,172 290,176 366,178" fill="none" stroke="#232f3e" stroke-width="2.4" stroke-dasharray="6 4" />
    <circle cx="60" cy="78" r="3.6" fill="#232f3e" />
    <circle cx="106" cy="105" r="3.6" fill="#232f3e" />
    <circle cx="152" cy="143" r="3.6" fill="#232f3e" />
    <circle cx="198" cy="164" r="3.6" fill="#232f3e" />
    <circle cx="244" cy="172" r="3.6" fill="#232f3e" />
    <circle cx="290" cy="176" r="3.6" fill="#232f3e" />
    <circle cx="366" cy="178" r="3.6" fill="#232f3e" />
  <polyline points="60,177 106,177 152,177 198,177 244,177 290,178 366,178" fill="none" stroke="#5c293b" stroke-width="2.4" />
    <circle cx="60" cy="177" r="3.6" fill="#5c293b" />
    <circle cx="106" cy="177" r="3.6" fill="#5c293b" />
    <circle cx="152" cy="177" r="3.6" fill="#5c293b" />
    <circle cx="198" cy="177" r="3.6" fill="#5c293b" />
    <circle cx="244" cy="177" r="3.6" fill="#5c293b" />
    <circle cx="290" cy="178" r="3.6" fill="#5c293b" />
    <circle cx="366" cy="178" r="3.6" fill="#5c293b" />
  <line x1="72" y1="78" x2="72" y2="177" stroke="#5c293b" stroke-width="1.4" stroke-dasharray="3 3" />
    <line x1="67" y1="78" x2="77" y2="78" stroke="#5c293b" stroke-width="1.4" />
    <line x1="67" y1="177" x2="77" y2="177" stroke="#5c293b" stroke-width="1.4" />
  <text x="78" y="210" text-anchor="start" font-family="monospace" font-size="12" fill="#5c293b">32 times closer at one evaluation</text>
  <text x="60" y="66" text-anchor="start" font-family="monospace" font-size="11" fill="#232f3e">rectified flow</text>
  <text x="366" y="196" text-anchor="end" font-family="monospace" font-size="11" fill="#5c293b">after reflow</text>
  <text x="60" y="242" text-anchor="middle" font-family="monospace" font-size="12" fill="#232f3e">1</text>
  <text x="213" y="242" text-anchor="middle" font-family="monospace" font-size="12" fill="#232f3e">10</text>
  <text x="366" y="242" text-anchor="middle" font-family="monospace" font-size="12" fill="#232f3e">100</text>
  <text x="213" y="266" text-anchor="middle" font-family="monospace" font-size="12" fill="#232f3e">network evaluations per sample</text>
  <text x="213" y="44" text-anchor="middle" font-family="monospace" font-size="12" fill="#232f3e">one evaluation, before and after</text>
</svg>
