<svg xmlns="http://www.w3.org/2000/svg" viewBox="0 0 400 300">
  <rect width="400" height="300" fill="#f1f3f3" />
  <g fill="#e7eaec"><rect x="80" y="12" width="44" height="44" /><rect x="128" y="12" width="44" height="44" /><rect x="176" y="12" width="44" height="44" /><rect x="224" y="12" width="44" height="44" /><rect x="272" y="12" width="44" height="44" /><rect x="80" y="60" width="44" height="44" /><rect x="128" y="60" width="44" height="44" /><rect x="176" y="60" width="44" height="44" /><rect x="224" y="60" width="44" height="44" /><rect x="272" y="60" width="44" height="44" /><rect x="80" y="108" width="44" height="44" /><rect x="128" y="108" width="44" height="44" /><rect x="176" y="108" width="44" height="44" /><rect x="224" y="108" width="44" height="44" /><rect x="272" y="108" width="44" height="44" /><rect x="80" y="156" width="44" height="44" /><rect x="128" y="156" width="44" height="44" /><rect x="176" y="156" width="44" height="44" /><rect x="224" y="156" width="44" height="44" /><rect x="272" y="156" width="44" height="44" /></g>
  <circle cx="294" cy="130" r="15" fill="#1c3f6e" />
  <circle cx="150" cy="178" r="15" fill="#1c3f6e" />
  <circle cx="198" cy="178" r="15" fill="#856314" />
  <circle cx="294" cy="178" r="15" fill="#856314" />
  <g><rect x="86" y="271" width="32" height="13" fill="#c9ced0" /><rect x="134" y="230" width="32" height="54" fill="#856314" /><rect x="182" y="275" width="32" height="9" fill="#856314" /><rect x="230" y="242" width="32" height="42" fill="#c9ced0" /><rect x="278" y="276" width="32" height="8" fill="#c9ced0" /></g>
</svg>
