<svg xmlns="http://www.w3.org/2000/svg" viewBox="0 0 400 300">
  <rect width="400" height="300" fill="#f1f3f3" />
  <g fill="rgb(219,210,212)">
    <rect x="16" y="230" width="9" height="11" /><rect x="24" y="170" width="9" height="11" /><rect x="32" y="160" width="9" height="11" /><rect x="48" y="190" width="9" height="11" /><rect x="56" y="130" width="9" height="11" /><rect x="72" y="160" width="9" height="11" />
    <rect x="80" y="150" width="9" height="11" /><rect x="88" y="90" width="9" height="11" /><rect x="120" y="50" width="9" height="11" /><rect x="128" y="90" width="9" height="11" /><rect x="144" y="20" width="9" height="11" /><rect x="160" y="50" width="9" height="11" />
    <rect x="184" y="20" width="9" height="11" />
  </g>
  <g fill="rgb(198,177,181)">
    <rect x="16" y="180" width="9" height="11" /><rect x="24" y="220" width="9" height="11" /><rect x="32" y="210" width="9" height="11" /><rect x="48" y="140" width="9" height="11" /><rect x="56" y="180" width="9" height="11" /><rect x="80" y="100" width="9" height="11" />
    <rect x="88" y="140" width="9" height="11" /><rect x="104" y="120" width="9" height="11" /><rect x="104" y="70" width="9" height="11" /><rect x="112" y="110" width="9" height="11" /><rect x="112" y="60" width="9" height="11" /><rect x="120" y="100" width="9" height="11" />
    <rect x="136" y="80" width="9" height="11" /><rect x="136" y="30" width="9" height="11" /><rect x="144" y="70" width="9" height="11" /><rect x="152" y="60" width="9" height="11" /><rect x="168" y="40" width="9" height="11" />
  </g>
  <g fill="rgb(177,144,151)">
    <rect x="40" y="200" width="9" height="11" /><rect x="64" y="170" width="9" height="11" /><rect x="64" y="130" width="9" height="11" /><rect x="72" y="110" width="9" height="11" /><rect x="96" y="130" width="9" height="11" /><rect x="96" y="90" width="9" height="11" />
    <rect x="128" y="40" width="9" height="11" /><rect x="152" y="20" width="9" height="11" /><rect x="176" y="30" width="9" height="11" />
  </g>
  <g fill="rgb(155,112,120)">
    <rect x="16" y="220" width="9" height="11" /><rect x="24" y="210" width="9" height="11" /><rect x="24" y="180" width="9" height="11" /><rect x="32" y="170" width="9" height="11" /><rect x="40" y="160" width="9" height="11" /><rect x="48" y="180" width="9" height="11" />
    <rect x="56" y="140" width="9" height="11" /><rect x="72" y="150" width="9" height="11" /><rect x="80" y="140" width="9" height="11" /><rect x="88" y="100" width="9" height="11" /><rect x="104" y="110" width="9" height="11" /><rect x="112" y="100" width="9" height="11" />
    <rect x="112" y="70" width="9" height="11" /><rect x="120" y="60" width="9" height="11" /><rect x="128" y="80" width="9" height="11" /><rect x="144" y="30" width="9" height="11" /><rect x="160" y="40" width="9" height="11" />
  </g>
  <g fill="rgb(134,79,90)">
    <rect x="16" y="190" width="9" height="11" /><rect x="32" y="200" width="9" height="11" /><rect x="48" y="150" width="9" height="11" /><rect x="56" y="170" width="9" height="11" /><rect x="64" y="160" width="9" height="11" /><rect x="72" y="120" width="9" height="11" />
    <rect x="80" y="110" width="9" height="11" /><rect x="88" y="130" width="9" height="11" /><rect x="104" y="80" width="9" height="11" /><rect x="120" y="90" width="9" height="11" /><rect x="128" y="50" width="9" height="11" /><rect x="136" y="70" width="9" height="11" />
    <rect x="136" y="40" width="9" height="11" /><rect x="144" y="60" width="9" height="11" /><rect x="152" y="50" width="9" height="11" /><rect x="168" y="30" width="9" height="11" /><rect x="176" y="20" width="9" height="11" />
  </g>
  <g fill="rgb(113,46,59)">
    <rect x="16" y="210" width="9" height="11" /><rect x="32" y="180" width="9" height="11" /><rect x="40" y="190" width="9" height="11" /><rect x="40" y="170" width="9" height="11" /><rect x="64" y="140" width="9" height="11" /><rect x="72" y="140" width="9" height="11" />
    <rect x="96" y="120" width="9" height="11" /><rect x="96" y="100" width="9" height="11" /><rect x="104" y="100" width="9" height="11" /><rect x="112" y="80" width="9" height="11" /><rect x="120" y="70" width="9" height="11" /><rect x="128" y="70" width="9" height="11" />
    <rect x="136" y="60" width="9" height="11" /><rect x="144" y="40" width="9" height="11" /><rect x="152" y="30" width="9" height="11" /><rect x="160" y="30" width="9" height="11" />
  </g>
  <g fill="rgb(92,14,29)">
    <rect x="16" y="200" width="9" height="11" /><rect x="24" y="200" width="9" height="11" /><rect x="24" y="190" width="9" height="11" /><rect x="32" y="190" width="9" height="11" /><rect x="40" y="180" width="9" height="11" /><rect x="48" y="170" width="9" height="11" />
    <rect x="48" y="160" width="9" height="11" /><rect x="56" y="160" width="9" height="11" /><rect x="56" y="150" width="9" height="11" /><rect x="64" y="150" width="9" height="11" /><rect x="72" y="130" width="9" height="11" /><rect x="80" y="130" width="9" height="11" />
    <rect x="80" y="120" width="9" height="11" /><rect x="88" y="120" width="9" height="11" /><rect x="88" y="110" width="9" height="11" /><rect x="96" y="110" width="9" height="11" /><rect x="104" y="90" width="9" height="11" /><rect x="112" y="90" width="9" height="11" />
    <rect x="120" y="80" width="9" height="11" /><rect x="128" y="60" width="9" height="11" /><rect x="136" y="50" width="9" height="11" /><rect x="144" y="50" width="9" height="11" /><rect x="152" y="40" width="9" height="11" /><rect x="160" y="20" width="9" height="11" />
    <rect x="168" y="20" width="9" height="11" />
  </g>
</svg>
